<svg xmlns="http://www.w3.org/2000/svg" xmlns:xlink="http://www.w3.org/1999/xlink" width="1024" zoomAndPan="magnify" viewBox="0 0 768 767.999994" height="1024" preserveAspectRatio="xMidYMid meet" version="1.0"><defs><clipPath id="a1e5b06d0d"><path d="M 15 12.816406 L 754 12.816406 L 754 751 L 15 751 Z M 15 12.816406 " clip-rule="nonzero"/></clipPath></defs><g clip-path="url(#a1e5b06d0d)"><path fill="#000000" d="M 383.167969 11.976562 C 381.160156 12.007812 379.15625 12.136719 377.160156 12.363281 C 375.164062 12.585938 373.1875 12.910156 371.222656 13.332031 C 369.257812 13.75 367.320312 14.265625 365.40625 14.878906 C 363.492188 15.488281 361.613281 16.191406 359.769531 16.988281 C 357.921875 17.78125 356.121094 18.667969 354.363281 19.640625 C 352.605469 20.609375 350.902344 21.667969 349.246094 22.808594 C 347.59375 23.945312 346 25.164062 344.464844 26.460938 C 342.929688 27.757812 341.460938 29.125 340.0625 30.566406 C 338.664062 32.007812 337.335938 33.511719 336.082031 35.082031 C 334.832031 36.652344 333.660156 38.28125 332.566406 39.964844 C 331.472656 41.652344 330.46875 43.386719 329.546875 45.171875 C 328.625 46.957031 327.789062 48.78125 327.046875 50.648438 C 326.304688 52.515625 325.65625 54.414062 325.097656 56.34375 C 324.542969 58.273438 324.082031 60.226562 323.71875 62.199219 C 323.351562 64.175781 323.085938 66.164062 322.917969 68.164062 C 322.746094 70.167969 322.675781 72.171875 322.703125 74.179688 L 322.703125 319.636719 L 77.25 319.636719 C 76.234375 319.621094 75.222656 319.632812 74.210938 319.667969 C 73.199219 319.703125 72.1875 319.765625 71.175781 319.851562 C 70.167969 319.9375 69.160156 320.046875 68.15625 320.183594 C 67.152344 320.320312 66.152344 320.480469 65.15625 320.664062 C 64.15625 320.851562 63.167969 321.058594 62.179688 321.296875 C 61.195312 321.53125 60.214844 321.789062 59.242188 322.070312 C 58.269531 322.355469 57.304688 322.660156 56.347656 322.992188 C 55.386719 323.324219 54.4375 323.675781 53.5 324.054688 C 52.558594 324.433594 51.628906 324.832031 50.707031 325.257812 C 49.789062 325.683594 48.878906 326.128906 47.980469 326.597656 C 47.082031 327.066406 46.195312 327.558594 45.320312 328.070312 C 44.445312 328.582031 43.585938 329.117188 42.738281 329.671875 C 41.890625 330.226562 41.058594 330.804688 40.238281 331.402344 C 39.417969 332 38.617188 332.613281 37.828125 333.25 C 37.039062 333.886719 36.265625 334.542969 35.511719 335.21875 C 34.753906 335.894531 34.015625 336.585938 33.292969 337.296875 C 32.574219 338.011719 31.871094 338.738281 31.183594 339.484375 C 30.5 340.230469 29.832031 340.996094 29.183594 341.773438 C 28.535156 342.554688 27.910156 343.347656 27.300781 344.160156 C 26.691406 344.96875 26.105469 345.792969 25.535156 346.632812 C 24.96875 347.472656 24.421875 348.328125 23.898438 349.195312 C 23.371094 350.058594 22.867188 350.9375 22.386719 351.832031 C 21.90625 352.722656 21.445312 353.625 21.007812 354.539062 C 20.570312 355.453125 20.15625 356.378906 19.765625 357.3125 C 19.375 358.25 19.007812 359.191406 18.664062 360.144531 C 18.320312 361.097656 18 362.058594 17.703125 363.027344 C 17.40625 363.996094 17.132812 364.972656 16.882812 365.957031 C 16.636719 366.9375 16.410156 367.925781 16.210938 368.921875 C 16.011719 369.914062 15.839844 370.910156 15.6875 371.914062 C 15.539062 372.917969 15.414062 373.921875 15.3125 374.929688 C 15.210938 375.9375 15.136719 376.949219 15.085938 377.960938 C 15.039062 378.972656 15.011719 379.984375 15.011719 381 C 15.011719 382.011719 15.039062 383.027344 15.085938 384.039062 C 15.136719 385.050781 15.210938 386.058594 15.3125 387.070312 C 15.414062 388.078125 15.539062 389.082031 15.6875 390.085938 C 15.839844 391.085938 16.011719 392.085938 16.210938 393.078125 C 16.410156 394.070312 16.636719 395.058594 16.882812 396.042969 C 17.132812 397.023438 17.40625 398 17.703125 398.96875 C 18 399.9375 18.320312 400.898438 18.664062 401.851562 C 19.007812 402.804688 19.375 403.75 19.765625 404.683594 C 20.15625 405.621094 20.570312 406.542969 21.007812 407.457031 C 21.445312 408.371094 21.90625 409.277344 22.386719 410.167969 C 22.867188 411.058594 23.371094 411.9375 23.898438 412.804688 C 24.421875 413.671875 24.96875 414.523438 25.535156 415.363281 C 26.105469 416.203125 26.691406 417.027344 27.300781 417.839844 C 27.910156 418.648438 28.535156 419.445312 29.183594 420.222656 C 29.832031 421.003906 30.5 421.765625 31.183594 422.511719 C 31.871094 423.257812 32.574219 423.988281 33.292969 424.699219 C 34.015625 425.410156 34.753906 426.105469 35.511719 426.78125 C 36.265625 427.453125 37.039062 428.109375 37.828125 428.746094 C 38.617188 429.382812 39.417969 430 40.238281 430.597656 C 41.058594 431.195312 41.890625 431.769531 42.738281 432.324219 C 43.585938 432.882812 44.445312 433.414062 45.320312 433.929688 C 46.195312 434.441406 47.082031 434.933594 47.980469 435.402344 C 48.878906 435.871094 49.789062 436.316406 50.707031 436.742188 C 51.628906 437.164062 52.558594 437.566406 53.5 437.941406 C 54.4375 438.320312 55.386719 438.675781 56.347656 439.007812 C 57.304688 439.335938 58.269531 439.644531 59.242188 439.925781 C 60.214844 440.210938 61.195312 440.46875 62.179688 440.703125 C 63.167969 440.9375 64.15625 441.148438 65.15625 441.332031 C 66.152344 441.519531 67.152344 441.679688 68.15625 441.816406 C 69.160156 441.949219 70.167969 442.0625 71.175781 442.148438 C 72.1875 442.234375 73.199219 442.292969 74.210938 442.332031 C 75.222656 442.367188 76.234375 442.378906 77.25 442.363281 L 322.703125 442.363281 L 322.703125 687.816406 C 322.6875 688.832031 322.699219 689.84375 322.734375 690.855469 C 322.773438 691.871094 322.832031 692.878906 322.917969 693.890625 C 323.003906 694.898438 323.117188 695.90625 323.25 696.910156 C 323.386719 697.914062 323.546875 698.914062 323.734375 699.910156 C 323.917969 700.910156 324.128906 701.898438 324.363281 702.886719 C 324.597656 703.871094 324.855469 704.851562 325.140625 705.824219 C 325.421875 706.796875 325.730469 707.761719 326.058594 708.71875 C 326.390625 709.679688 326.746094 710.628906 327.125 711.566406 C 327.5 712.507812 327.902344 713.4375 328.324219 714.359375 C 328.75 715.277344 329.195312 716.1875 329.664062 717.085938 C 330.132812 717.984375 330.625 718.871094 331.136719 719.746094 C 331.652344 720.621094 332.1875 721.480469 332.742188 722.328125 C 333.296875 723.175781 333.871094 724.007812 334.46875 724.828125 C 335.066406 725.648438 335.683594 726.449219 336.320312 727.238281 C 336.957031 728.027344 337.613281 728.800781 338.289062 729.554688 C 338.960938 730.3125 339.65625 731.050781 340.367188 731.773438 C 341.078125 732.492188 341.808594 733.195312 342.554688 733.882812 C 343.300781 734.566406 344.0625 735.234375 344.84375 735.882812 C 345.621094 736.53125 346.417969 737.160156 347.226562 737.765625 C 348.039062 738.375 348.863281 738.960938 349.703125 739.53125 C 350.542969 740.097656 351.394531 740.644531 352.261719 741.167969 C 353.128906 741.695312 354.007812 742.199219 354.898438 742.679688 C 355.789062 743.160156 356.695312 743.621094 357.609375 744.058594 C 358.523438 744.496094 359.445312 744.910156 360.382812 745.300781 C 361.316406 745.691406 362.261719 746.058594 363.214844 746.402344 C 364.167969 746.746094 365.128906 747.066406 366.097656 747.363281 C 367.066406 747.660156 368.042969 747.933594 369.023438 748.183594 C 370.007812 748.429688 370.996094 748.65625 371.988281 748.855469 C 372.980469 749.054688 373.980469 749.226562 374.980469 749.378906 C 375.984375 749.527344 376.988281 749.652344 378 749.753906 C 379.007812 749.855469 380.015625 749.929688 381.027344 749.980469 C 382.042969 750.03125 383.054688 750.054688 384.066406 750.054688 C 385.082031 750.054688 386.09375 750.03125 387.105469 749.980469 C 388.117188 749.929688 389.128906 749.855469 390.136719 749.753906 C 391.144531 749.652344 392.148438 749.527344 393.152344 749.378906 C 394.15625 749.226562 395.152344 749.054688 396.144531 748.855469 C 397.140625 748.65625 398.128906 748.429688 399.109375 748.183594 C 400.09375 747.933594 401.070312 747.660156 402.039062 747.363281 C 403.007812 747.066406 403.96875 746.746094 404.921875 746.402344 C 405.875 746.058594 406.816406 745.691406 407.753906 745.300781 C 408.6875 744.910156 409.613281 744.496094 410.527344 744.058594 C 411.441406 743.621094 412.34375 743.160156 413.234375 742.679688 C 414.128906 742.199219 415.007812 741.695312 415.875 741.167969 C 416.738281 740.644531 417.59375 740.097656 418.433594 739.53125 C 419.273438 738.960938 420.097656 738.375 420.90625 737.765625 C 421.71875 737.160156 422.511719 736.53125 423.292969 735.882812 C 424.070312 735.234375 424.835938 734.566406 425.582031 733.882812 C 426.328125 733.195312 427.054688 732.492188 427.769531 731.773438 C 428.480469 731.050781 429.171875 730.3125 429.847656 729.554688 C 430.523438 728.800781 431.179688 728.027344 431.816406 727.238281 C 432.453125 726.449219 433.066406 725.648438 433.664062 724.828125 C 434.261719 724.007812 434.839844 723.175781 435.394531 722.328125 C 435.949219 721.480469 436.484375 720.621094 436.996094 719.746094 C 437.507812 718.871094 438 717.984375 438.46875 717.085938 C 438.9375 716.1875 439.382812 715.277344 439.808594 714.359375 C 440.234375 713.4375 440.632812 712.507812 441.011719 711.566406 C 441.390625 710.628906 441.742188 709.679688 442.074219 708.71875 C 442.40625 707.761719 442.710938 706.796875 442.996094 705.824219 C 443.277344 704.851562 443.535156 703.871094 443.773438 702.886719 C 444.007812 701.898438 444.214844 700.910156 444.402344 699.910156 C 444.585938 698.914062 444.746094 697.914062 444.882812 696.910156 C 445.019531 695.90625 445.128906 694.898438 445.214844 693.890625 C 445.300781 692.878906 445.363281 691.871094 445.398438 690.855469 C 445.433594 689.84375 445.445312 688.832031 445.429688 687.816406 L 445.429688 442.363281 L 690.886719 442.363281 C 691.898438 442.378906 692.910156 442.367188 693.925781 442.332031 C 694.9375 442.292969 695.949219 442.234375 696.957031 442.148438 C 697.96875 442.0625 698.976562 441.949219 699.980469 441.816406 C 700.984375 441.679688 701.984375 441.519531 702.980469 441.332031 C 703.976562 441.148438 704.96875 440.9375 705.953125 440.703125 C 706.9375 440.46875 707.917969 440.210938 708.890625 439.925781 C 709.863281 439.644531 710.832031 439.335938 711.789062 439.007812 C 712.746094 438.675781 713.695312 438.320312 714.636719 437.941406 C 715.574219 437.566406 716.507812 437.164062 717.425781 436.742188 C 718.347656 436.316406 719.257812 435.871094 720.15625 435.402344 C 721.054688 434.933594 721.941406 434.441406 722.8125 433.929688 C 723.6875 433.414062 724.546875 432.882812 725.394531 432.324219 C 726.242188 431.769531 727.078125 431.195312 727.894531 430.597656 C 728.714844 430 729.519531 429.382812 730.308594 428.746094 C 731.09375 428.109375 731.867188 427.453125 732.625 426.78125 C 733.378906 426.105469 734.117188 425.410156 734.839844 424.699219 C 735.5625 423.988281 736.265625 423.257812 736.949219 422.511719 C 737.636719 421.765625 738.304688 421.003906 738.949219 420.222656 C 739.597656 419.445312 740.226562 418.648438 740.835938 417.839844 C 741.441406 417.027344 742.03125 416.203125 742.597656 415.363281 C 743.164062 414.523438 743.710938 413.671875 744.238281 412.804688 C 744.761719 411.9375 745.265625 411.058594 745.746094 410.167969 C 746.230469 409.277344 746.6875 408.371094 747.125 407.457031 C 747.5625 406.542969 747.976562 405.621094 748.367188 404.683594 C 748.757812 403.75 749.125 402.804688 749.472656 401.851562 C 749.816406 400.898438 750.136719 399.9375 750.433594 398.96875 C 750.730469 398 751 397.023438 751.25 396.042969 C 751.5 395.058594 751.722656 394.070312 751.921875 393.078125 C 752.121094 392.085938 752.296875 391.085938 752.445312 390.085938 C 752.597656 389.082031 752.722656 388.078125 752.820312 387.070312 C 752.921875 386.058594 752.996094 385.050781 753.046875 384.039062 C 753.097656 383.027344 753.121094 382.011719 753.121094 381 C 753.121094 379.984375 753.097656 378.972656 753.046875 377.960938 C 752.996094 376.949219 752.921875 375.9375 752.820312 374.929688 C 752.722656 373.921875 752.597656 372.917969 752.445312 371.914062 C 752.296875 370.910156 752.121094 369.914062 751.921875 368.921875 C 751.722656 367.925781 751.5 366.9375 751.25 365.957031 C 751 364.972656 750.730469 363.996094 750.433594 363.027344 C 750.136719 362.058594 749.816406 361.097656 749.472656 360.144531 C 749.125 359.191406 748.757812 358.25 748.367188 357.3125 C 747.976562 356.378906 747.5625 355.453125 747.125 354.539062 C 746.6875 353.625 746.230469 352.722656 745.746094 351.832031 C 745.265625 350.9375 744.761719 350.058594 744.238281 349.195312 C 743.710938 348.328125 743.164062 347.472656 742.597656 346.632812 C 742.03125 345.792969 741.441406 344.96875 740.835938 344.160156 C 740.226562 343.347656 739.597656 342.554688 738.949219 341.773438 C 738.304688 340.996094 737.636719 340.230469 736.949219 339.484375 C 736.265625 338.738281 735.5625 338.011719 734.839844 337.296875 C 734.117188 336.585938 733.378906 335.894531 732.625 335.21875 C 731.867188 334.542969 731.09375 333.886719 730.308594 333.25 C 729.519531 332.613281 728.714844 332 727.894531 331.402344 C 727.078125 330.804688 726.242188 330.226562 725.394531 329.671875 C 724.546875 329.117188 723.6875 328.582031 722.8125 328.070312 C 721.941406 327.558594 721.054688 327.066406 720.15625 326.597656 C 719.257812 326.128906 718.347656 325.683594 717.425781 325.257812 C 716.507812 324.832031 715.574219 324.433594 714.636719 324.054688 C 713.695312 323.675781 712.746094 323.324219 711.789062 322.992188 C 710.832031 322.660156 709.863281 322.355469 708.890625 322.070312 C 707.917969 321.789062 706.9375 321.53125 705.953125 321.296875 C 704.96875 321.058594 703.976562 320.851562 702.980469 320.664062 C 701.984375 320.480469 700.984375 320.320312 699.980469 320.183594 C 698.976562 320.046875 697.96875 319.9375 696.957031 319.851562 C 695.949219 319.765625 694.9375 319.703125 693.925781 319.667969 C 692.910156 319.632812 691.898438 319.621094 690.886719 319.636719 L 445.429688 319.636719 L 445.429688 74.179688 C 445.445312 73.160156 445.433594 72.136719 445.394531 71.113281 C 445.359375 70.09375 445.296875 69.074219 445.207031 68.054688 C 445.121094 67.035156 445.007812 66.019531 444.867188 65.007812 C 444.730469 63.992188 444.566406 62.984375 444.375 61.980469 C 444.1875 60.976562 443.972656 59.976562 443.734375 58.980469 C 443.492188 57.988281 443.230469 57 442.941406 56.019531 C 442.652344 55.039062 442.339844 54.066406 442.003906 53.101562 C 441.664062 52.132812 441.304688 51.179688 440.917969 50.230469 C 440.535156 49.285156 440.125 48.347656 439.695312 47.421875 C 439.261719 46.492188 438.808594 45.578125 438.328125 44.671875 C 437.851562 43.769531 437.351562 42.878906 436.828125 42 C 436.308594 41.121094 435.761719 40.253906 435.199219 39.402344 C 434.632812 38.550781 434.046875 37.714844 433.4375 36.890625 C 432.832031 36.066406 432.203125 35.261719 431.554688 34.46875 C 430.910156 33.679688 430.242188 32.90625 429.554688 32.148438 C 428.867188 31.390625 428.164062 30.648438 427.441406 29.925781 C 426.71875 29.203125 425.976562 28.5 425.21875 27.8125 C 424.460938 27.128906 423.683594 26.460938 422.890625 25.816406 C 422.101562 25.167969 421.292969 24.542969 420.46875 23.933594 C 419.648438 23.328125 418.808594 22.742188 417.957031 22.179688 C 417.105469 21.613281 416.238281 21.070312 415.359375 20.550781 C 414.480469 20.027344 413.585938 19.527344 412.683594 19.050781 C 411.777344 18.574219 410.863281 18.121094 409.933594 17.691406 C 409.007812 17.257812 408.070312 16.851562 407.121094 16.46875 C 406.175781 16.082031 405.21875 15.722656 404.253906 15.386719 C 403.289062 15.050781 402.3125 14.738281 401.332031 14.449219 C 400.351562 14.164062 399.363281 13.898438 398.371094 13.660156 C 397.375 13.421875 396.375 13.210938 395.371094 13.023438 C 394.367188 12.832031 393.355469 12.671875 392.34375 12.53125 C 391.332031 12.394531 390.3125 12.28125 389.296875 12.195312 C 388.277344 12.109375 387.257812 12.046875 386.234375 12.011719 C 385.210938 11.972656 384.191406 11.964844 383.167969 11.976562 Z M 383.167969 11.976562 " fill-opacity="1" fill-rule="nonzero"/></g></svg>