<svg xmlns="http://www.w3.org/2000/svg" xmlns:xlink="http://www.w3.org/1999/xlink" width="500" zoomAndPan="magnify" viewBox="0 0 375 374.999991" height="500" preserveAspectRatio="xMidYMid meet" version="1.0"><defs><clipPath id="33e82ad41b"><path d="M 54.863281 4.867188 L 320.363281 4.867188 L 320.363281 370.117188 L 54.863281 370.117188 Z M 54.863281 4.867188 " clip-rule="nonzero"/></clipPath></defs><g clip-path="url(#33e82ad41b)"><path fill="#ffffff" d="M 317.644531 81.121094 L 310.34375 74.332031 L 269.734375 36.277344 L 238.476562 7.0625 C 237.085938 5.675781 235.261719 4.945312 233.289062 4.945312 L 83.933594 4.945312 C 67.9375 4.945312 54.863281 18.019531 54.863281 34.015625 L 54.863281 340.984375 C 54.863281 357.050781 67.9375 370.050781 83.933594 370.050781 L 290.988281 370.050781 C 307.054688 370.050781 320.054688 356.976562 320.054688 340.984375 L 320.054688 86.671875 C 320.128906 84.554688 319.253906 82.511719 317.644531 81.121094 Z M 240.957031 30.363281 L 253.8125 42.339844 L 292.960938 79.003906 L 245.121094 79.003906 C 242.859375 79.003906 240.957031 77.179688 240.957031 74.839844 Z M 290.988281 354.789062 L 83.933594 354.789062 C 76.335938 354.789062 70.199219 348.652344 70.199219 341.054688 L 70.199219 34.015625 C 70.199219 26.492188 76.410156 20.285156 83.933594 20.285156 L 225.546875 20.285156 L 225.546875 74.839844 C 225.546875 85.578125 234.3125 94.34375 245.046875 94.34375 L 304.644531 94.34375 L 304.644531 340.984375 C 304.71875 348.578125 298.582031 354.789062 290.988281 354.789062 Z M 290.988281 354.789062 " fill-opacity="1" fill-rule="nonzero"/></g><path fill="#ffffff" d="M 187.496094 112.746094 C 166.171875 112.746094 146.085938 121.074219 130.96875 136.191406 C 115.847656 151.308594 107.523438 171.394531 107.523438 192.722656 C 107.523438 214.046875 115.847656 234.132812 130.96875 249.25 C 146.085938 264.371094 166.171875 272.695312 187.496094 272.695312 C 208.824219 272.695312 228.90625 264.371094 244.027344 249.25 C 259.144531 234.132812 267.46875 214.046875 267.46875 192.722656 C 267.46875 171.394531 259.144531 151.308594 244.027344 136.191406 C 228.90625 121.074219 208.824219 112.746094 187.496094 112.746094 Z M 187.496094 257.359375 C 151.855469 257.359375 122.933594 228.363281 122.933594 192.792969 C 122.933594 157.152344 151.929688 128.230469 187.496094 128.230469 C 223.136719 128.230469 252.058594 157.226562 252.058594 192.792969 C 252.058594 228.363281 223.066406 257.359375 187.496094 257.359375 Z M 187.496094 257.359375 " fill-opacity="1" fill-rule="nonzero"/><path fill="#ffffff" d="M 219.558594 185.050781 L 195.164062 185.050781 L 195.164062 160.660156 C 195.164062 156.421875 191.734375 152.988281 187.496094 152.988281 C 183.261719 152.988281 179.828125 156.421875 179.828125 160.660156 L 179.828125 185.050781 L 155.433594 185.050781 C 151.199219 185.050781 147.765625 188.484375 147.765625 192.722656 C 147.765625 196.957031 151.199219 200.390625 155.433594 200.390625 L 179.828125 200.390625 L 179.828125 224.785156 C 179.828125 229.019531 183.261719 232.453125 187.496094 232.453125 C 191.734375 232.453125 195.164062 229.019531 195.164062 224.785156 L 195.164062 200.390625 L 219.558594 200.390625 C 223.796875 200.390625 227.226562 196.957031 227.226562 192.722656 C 227.226562 188.484375 223.796875 185.050781 219.558594 185.050781 Z M 219.558594 185.050781 " fill-opacity="1" fill-rule="nonzero"/></svg>