<svg xmlns="http://www.w3.org/2000/svg" xmlns:xlink="http://www.w3.org/1999/xlink" width="500" zoomAndPan="magnify" viewBox="0 0 375 374.999991" height="500" preserveAspectRatio="xMidYMid meet" version="1.0"><defs><clipPath id="618929af1a"><path d="M 2.539062 15.714844 L 372.289062 15.714844 L 372.289062 359 L 2.539062 359 Z M 2.539062 15.714844 " clip-rule="nonzero"/></clipPath></defs><g clip-path="url(#618929af1a)"><path fill="#ffffff" d="M 333.742188 81.9375 L 199.648438 81.9375 C 195.949219 81.9375 192.382812 80.21875 190.136719 77.3125 L 152.617188 30.28125 C 145.21875 21.035156 134.253906 15.75 122.363281 15.75 L 41.246094 15.75 C 19.976562 15.75 2.539062 33.054688 2.539062 54.457031 L 2.539062 320.003906 C 2.539062 341.273438 19.84375 358.714844 41.246094 358.714844 L 333.742188 358.714844 C 355.011719 358.714844 372.453125 341.40625 372.453125 320.003906 L 372.453125 120.648438 C 372.453125 99.246094 355.144531 81.9375 333.742188 81.9375 Z M 240.339844 240.339844 L 200.707031 240.339844 L 200.707031 279.972656 C 200.707031 287.238281 194.761719 293.183594 187.496094 293.183594 C 180.230469 293.183594 174.285156 287.238281 174.285156 279.972656 L 174.285156 240.339844 L 134.648438 240.339844 C 127.382812 240.339844 121.4375 234.394531 121.4375 227.128906 C 121.4375 219.863281 127.382812 213.917969 134.648438 213.917969 L 174.285156 213.917969 L 174.285156 174.285156 C 174.285156 167.019531 180.230469 161.074219 187.496094 161.074219 C 194.761719 161.074219 200.707031 167.019531 200.707031 174.285156 L 200.707031 213.917969 L 240.339844 213.917969 C 247.605469 213.917969 253.550781 219.863281 253.550781 227.128906 C 253.550781 234.394531 247.605469 240.339844 240.339844 240.339844 Z M 240.339844 240.339844 " fill-opacity="1" fill-rule="nonzero"/></g></svg>