<svg xmlns="http://www.w3.org/2000/svg" xmlns:xlink="http://www.w3.org/1999/xlink" width="500" zoomAndPan="magnify" viewBox="0 0 375 374.999991" height="500" preserveAspectRatio="xMidYMid meet" version="1.0"><defs><clipPath id="b87daac112"><path d="M 2.539062 15.714844 L 372.289062 15.714844 L 372.289062 359 L 2.539062 359 Z M 2.539062 15.714844 " clip-rule="nonzero"/></clipPath></defs><g clip-path="url(#b87daac112)"><path fill="#000000" d="M 333.597656 81.925781 L 199.5625 81.925781 C 195.863281 81.925781 192.296875 80.210938 190.054688 77.304688 L 152.550781 30.28125 C 145.15625 21.035156 134.195312 15.75 122.308594 15.75 L 41.230469 15.75 C 19.96875 15.75 2.539062 33.054688 2.539062 54.453125 L 2.539062 319.953125 C 2.539062 341.21875 19.835938 358.65625 41.230469 358.65625 L 333.597656 358.65625 C 354.855469 358.65625 372.289062 341.351562 372.289062 319.953125 L 372.289062 120.628906 C 372.289062 99.230469 354.988281 81.925781 333.597656 81.925781 Z M 240.234375 240.300781 L 200.617188 240.300781 L 200.617188 279.929688 C 200.617188 287.195312 194.675781 293.136719 187.414062 293.136719 C 180.148438 293.136719 174.207031 287.195312 174.207031 279.929688 L 174.207031 240.300781 L 134.589844 240.300781 C 127.328125 240.300781 121.386719 234.359375 121.386719 227.09375 C 121.386719 219.828125 127.328125 213.882812 134.589844 213.882812 L 174.207031 213.882812 L 174.207031 174.257812 C 174.207031 166.992188 180.148438 161.046875 187.414062 161.046875 C 194.675781 161.046875 200.617188 166.992188 200.617188 174.257812 L 200.617188 213.882812 L 240.234375 213.882812 C 247.496094 213.882812 253.441406 219.828125 253.441406 227.09375 C 253.441406 234.359375 247.496094 240.300781 240.234375 240.300781 Z M 240.234375 240.300781 " fill-opacity="1" fill-rule="nonzero"/></g></svg>