<svg xmlns="http://www.w3.org/2000/svg" xmlns:xlink="http://www.w3.org/1999/xlink" width="500" zoomAndPan="magnify" viewBox="0 0 375 374.999991" height="500" preserveAspectRatio="xMidYMid meet" version="1.0"><defs><clipPath id="52f598e770"><path d="M 54.863281 4.867188 L 320.363281 4.867188 L 320.363281 370.117188 L 54.863281 370.117188 Z M 54.863281 4.867188 " clip-rule="nonzero"/></clipPath></defs><g clip-path="url(#52f598e770)"><path fill="#000000" d="M 317.878906 81.121094 L 310.566406 74.328125 L 269.925781 36.277344 L 238.636719 7.0625 C 237.25 5.675781 235.421875 4.945312 233.449219 4.945312 L 83.957031 4.945312 C 67.949219 4.945312 54.863281 18.019531 54.863281 34.011719 L 54.863281 340.972656 C 54.863281 357.039062 67.949219 370.039062 83.957031 370.039062 L 291.195312 370.039062 C 307.277344 370.039062 320.289062 356.96875 320.289062 340.972656 L 320.289062 86.671875 C 320.363281 84.550781 319.488281 82.507812 317.878906 81.121094 Z M 241.121094 30.363281 L 253.988281 42.339844 L 293.171875 79.003906 L 245.289062 79.003906 C 243.023438 79.003906 241.121094 77.175781 241.121094 74.839844 Z M 291.195312 354.777344 L 83.957031 354.777344 C 76.355469 354.777344 70.214844 348.640625 70.214844 341.046875 L 70.214844 34.011719 C 70.214844 26.492188 76.429688 20.285156 83.957031 20.285156 L 225.699219 20.285156 L 225.699219 74.839844 C 225.699219 85.574219 234.472656 94.339844 245.214844 94.339844 L 304.867188 94.339844 L 304.867188 340.972656 C 304.941406 348.566406 298.800781 354.777344 291.195312 354.777344 Z M 291.195312 354.777344 " fill-opacity="1" fill-rule="nonzero"/></g><path fill="#000000" d="M 187.613281 112.742188 C 166.269531 112.742188 146.164062 121.070312 131.035156 136.1875 C 115.902344 151.304688 107.570312 171.390625 107.570312 192.714844 C 107.570312 214.039062 115.902344 234.125 131.035156 249.242188 C 146.164062 264.359375 166.269531 272.6875 187.613281 272.6875 C 208.957031 272.6875 229.0625 264.359375 244.191406 249.242188 C 259.324219 234.125 267.660156 214.039062 267.660156 192.714844 C 267.660156 171.390625 259.324219 151.304688 244.191406 136.1875 C 229.0625 121.070312 208.957031 112.742188 187.613281 112.742188 Z M 187.613281 257.351562 C 151.941406 257.351562 122.992188 228.355469 122.992188 192.789062 C 122.992188 157.148438 152.015625 128.226562 187.613281 128.226562 C 223.285156 128.226562 252.234375 157.222656 252.234375 192.789062 C 252.234375 228.355469 223.214844 257.351562 187.613281 257.351562 Z M 187.613281 257.351562 " fill-opacity="1" fill-rule="nonzero"/><path fill="#000000" d="M 219.703125 185.046875 L 195.289062 185.046875 L 195.289062 160.652344 C 195.289062 156.417969 191.851562 152.984375 187.613281 152.984375 C 183.375 152.984375 179.9375 156.417969 179.9375 160.652344 L 179.9375 185.046875 L 155.523438 185.046875 C 151.28125 185.046875 147.847656 188.480469 147.847656 192.714844 C 147.847656 196.949219 151.28125 200.382812 155.523438 200.382812 L 179.9375 200.382812 L 179.9375 224.777344 C 179.9375 229.011719 183.375 232.445312 187.613281 232.445312 C 191.851562 232.445312 195.289062 229.011719 195.289062 224.777344 L 195.289062 200.382812 L 219.703125 200.382812 C 223.945312 200.382812 227.378906 196.949219 227.378906 192.714844 C 227.378906 188.480469 223.945312 185.046875 219.703125 185.046875 Z M 219.703125 185.046875 " fill-opacity="1" fill-rule="nonzero"/></svg>