<svg xmlns="http://www.w3.org/2000/svg" xmlns:xlink="http://www.w3.org/1999/xlink" width="1024" zoomAndPan="magnify" viewBox="0 0 768 767.999994" height="1024" preserveAspectRatio="xMidYMid meet" version="1.0"><defs><clipPath id="cf509f4d53"><path d="M 15 12.816406 L 753 12.816406 L 753 750 L 15 750 Z M 15 12.816406 " clip-rule="nonzero"/></clipPath></defs><g clip-path="url(#cf509f4d53)"><path fill="#d9d9d9" d="M 383.097656 11.980469 C 381.089844 12.007812 379.089844 12.136719 377.09375 12.363281 C 375.097656 12.585938 373.117188 12.910156 371.152344 13.332031 C 369.191406 13.75 367.25 14.265625 365.339844 14.878906 C 363.425781 15.488281 361.546875 16.191406 359.703125 16.988281 C 357.859375 17.78125 356.058594 18.664062 354.300781 19.636719 C 352.542969 20.609375 350.835938 21.664062 349.183594 22.804688 C 347.53125 23.945312 345.9375 25.164062 344.402344 26.457031 C 342.867188 27.753906 341.398438 29.121094 340 30.5625 C 338.601562 32.003906 337.273438 33.507812 336.023438 35.078125 C 334.769531 36.648438 333.597656 38.277344 332.507812 39.960938 C 331.414062 41.648438 330.40625 43.382812 329.484375 45.164062 C 328.5625 46.949219 327.730469 48.773438 326.988281 50.640625 C 326.246094 52.507812 325.597656 54.40625 325.039062 56.335938 C 324.484375 58.265625 324.023438 60.214844 323.660156 62.191406 C 323.292969 64.167969 323.027344 66.15625 322.859375 68.15625 C 322.6875 70.15625 322.617188 72.160156 322.644531 74.167969 L 322.644531 319.578125 L 77.238281 319.578125 C 76.222656 319.5625 75.210938 319.574219 74.199219 319.609375 C 73.1875 319.644531 72.175781 319.707031 71.164062 319.792969 C 70.15625 319.878906 69.148438 319.988281 68.144531 320.125 C 67.140625 320.261719 66.140625 320.421875 65.144531 320.605469 C 64.148438 320.792969 63.15625 321.003906 62.171875 321.238281 C 61.1875 321.472656 60.207031 321.730469 59.234375 322.011719 C 58.261719 322.296875 57.296875 322.601562 56.339844 322.933594 C 55.378906 323.265625 54.429688 323.617188 53.492188 323.996094 C 52.550781 324.375 51.621094 324.773438 50.699219 325.199219 C 49.78125 325.621094 48.871094 326.070312 47.972656 326.539062 C 47.074219 327.007812 46.1875 327.496094 45.316406 328.011719 C 44.441406 328.523438 43.582031 329.058594 42.734375 329.613281 C 41.886719 330.167969 41.050781 330.746094 40.234375 331.339844 C 39.414062 331.9375 38.609375 332.554688 37.824219 333.191406 C 37.035156 333.828125 36.261719 334.484375 35.507812 335.15625 C 34.75 335.832031 34.011719 336.527344 33.289062 337.238281 C 32.570312 337.949219 31.867188 338.675781 31.179688 339.421875 C 30.496094 340.167969 29.828125 340.933594 29.179688 341.710938 C 28.535156 342.492188 27.90625 343.285156 27.296875 344.097656 C 26.6875 344.90625 26.101562 345.730469 25.535156 346.570312 C 24.964844 347.410156 24.421875 348.261719 23.894531 349.128906 C 23.371094 349.996094 22.867188 350.875 22.386719 351.765625 C 21.902344 352.660156 21.445312 353.5625 21.007812 354.476562 C 20.570312 355.390625 20.15625 356.3125 19.765625 357.25 C 19.375 358.183594 19.007812 359.128906 18.664062 360.082031 C 18.316406 361.03125 17.996094 361.992188 17.699219 362.960938 C 17.40625 363.929688 17.132812 364.90625 16.882812 365.890625 C 16.636719 366.871094 16.410156 367.859375 16.210938 368.851562 C 16.011719 369.847656 15.835938 370.84375 15.6875 371.847656 C 15.539062 372.847656 15.414062 373.851562 15.3125 374.863281 C 15.210938 375.871094 15.136719 376.878906 15.085938 377.890625 C 15.035156 378.902344 15.011719 379.917969 15.011719 380.929688 C 15.011719 381.941406 15.035156 382.957031 15.085938 383.96875 C 15.136719 384.980469 15.210938 385.988281 15.3125 386.996094 C 15.414062 388.007812 15.539062 389.011719 15.6875 390.011719 C 15.835938 391.015625 16.011719 392.011719 16.210938 393.007812 C 16.410156 394 16.636719 394.988281 16.882812 395.96875 C 17.132812 396.953125 17.40625 397.925781 17.699219 398.894531 C 17.996094 399.867188 18.316406 400.824219 18.664062 401.777344 C 19.007812 402.730469 19.375 403.675781 19.765625 404.609375 C 20.15625 405.546875 20.570312 406.46875 21.007812 407.382812 C 21.445312 408.296875 21.902344 409.199219 22.386719 410.09375 C 22.867188 410.984375 23.371094 411.863281 23.894531 412.730469 C 24.421875 413.597656 24.964844 414.449219 25.535156 415.289062 C 26.101562 416.128906 26.6875 416.953125 27.296875 417.761719 C 27.90625 418.574219 28.535156 419.367188 29.179688 420.148438 C 29.828125 420.925781 30.496094 421.6875 31.179688 422.433594 C 31.867188 423.183594 32.570312 423.910156 33.289062 424.621094 C 34.011719 425.332031 34.75 426.027344 35.507812 426.699219 C 36.261719 427.375 37.035156 428.03125 37.824219 428.667969 C 38.609375 429.304688 39.414062 429.921875 40.234375 430.519531 C 41.050781 431.113281 41.886719 431.691406 42.734375 432.246094 C 43.582031 432.800781 44.441406 433.335938 45.316406 433.847656 C 46.1875 434.363281 47.074219 434.851562 47.972656 435.320312 C 48.871094 435.789062 49.78125 436.238281 50.699219 436.660156 C 51.621094 437.085938 52.550781 437.484375 53.492188 437.863281 C 54.429688 438.242188 55.378906 438.59375 56.339844 438.925781 C 57.296875 439.257812 58.261719 439.5625 59.234375 439.847656 C 60.207031 440.128906 61.1875 440.386719 62.171875 440.621094 C 63.15625 440.855469 64.148438 441.066406 65.144531 441.253906 C 66.140625 441.4375 67.140625 441.597656 68.144531 441.734375 C 69.148438 441.871094 70.15625 441.980469 71.164062 442.066406 C 72.175781 442.152344 73.1875 442.214844 74.199219 442.25 C 75.210938 442.285156 76.222656 442.296875 77.238281 442.28125 L 322.644531 442.28125 L 322.644531 687.691406 C 322.628906 688.703125 322.640625 689.714844 322.675781 690.726562 C 322.714844 691.742188 322.773438 692.75 322.859375 693.761719 C 322.945312 694.769531 323.058594 695.777344 323.191406 696.78125 C 323.328125 697.785156 323.488281 698.785156 323.675781 699.78125 C 323.859375 700.777344 324.070312 701.769531 324.304688 702.753906 C 324.539062 703.742188 324.796875 704.71875 325.082031 705.691406 C 325.363281 706.664062 325.671875 707.632812 326 708.589844 C 326.332031 709.546875 326.6875 710.496094 327.0625 711.433594 C 327.441406 712.375 327.84375 713.304688 328.265625 714.226562 C 328.691406 715.144531 329.136719 716.054688 329.605469 716.953125 C 330.074219 717.851562 330.566406 718.738281 331.078125 719.613281 C 331.589844 720.484375 332.125 721.347656 332.679688 722.195312 C 333.234375 723.039062 333.8125 723.875 334.410156 724.691406 C 335.003906 725.511719 335.621094 726.316406 336.257812 727.105469 C 336.894531 727.890625 337.550781 728.664062 338.226562 729.417969 C 338.898438 730.175781 339.59375 730.914062 340.304688 731.636719 C 341.015625 732.355469 341.746094 733.0625 342.492188 733.746094 C 343.238281 734.429688 344 735.097656 344.78125 735.746094 C 345.558594 736.394531 346.351562 737.019531 347.164062 737.628906 C 347.972656 738.238281 348.800781 738.824219 349.636719 739.394531 C 350.476562 739.960938 351.332031 740.507812 352.199219 741.03125 C 353.0625 741.554688 353.941406 742.058594 354.835938 742.542969 C 355.726562 743.023438 356.628906 743.480469 357.542969 743.917969 C 358.457031 744.355469 359.382812 744.769531 360.316406 745.160156 C 361.25 745.550781 362.195312 745.917969 363.148438 746.265625 C 364.101562 746.609375 365.0625 746.929688 366.03125 747.226562 C 367 747.523438 367.972656 747.792969 368.957031 748.042969 C 369.9375 748.292969 370.925781 748.515625 371.921875 748.714844 C 372.914062 748.914062 373.910156 749.089844 374.914062 749.238281 C 375.914062 749.390625 376.921875 749.515625 377.929688 749.613281 C 378.9375 749.714844 379.949219 749.789062 380.960938 749.839844 C 381.972656 749.890625 382.984375 749.914062 383.996094 749.914062 C 385.011719 749.914062 386.023438 749.890625 387.035156 749.839844 C 388.046875 749.789062 389.058594 749.714844 390.066406 749.613281 C 391.074219 749.515625 392.078125 749.390625 393.082031 749.238281 C 394.082031 749.089844 395.082031 748.914062 396.074219 748.714844 C 397.066406 748.515625 398.054688 748.292969 399.039062 748.042969 C 400.019531 747.792969 400.996094 747.523438 401.964844 747.226562 C 402.933594 746.929688 403.894531 746.609375 404.847656 746.265625 C 405.800781 745.917969 406.742188 745.550781 407.679688 745.160156 C 408.613281 744.769531 409.539062 744.355469 410.453125 743.917969 C 411.367188 743.480469 412.269531 743.023438 413.160156 742.542969 C 414.050781 742.058594 414.929688 741.558594 415.796875 741.03125 C 416.664062 740.507812 417.515625 739.960938 418.355469 739.394531 C 419.195312 738.824219 420.019531 738.238281 420.832031 737.628906 C 421.640625 737.019531 422.433594 736.394531 423.214844 735.746094 C 423.992188 735.097656 424.757812 734.429688 425.503906 733.746094 C 426.25 733.0625 426.976562 732.355469 427.6875 731.636719 C 428.402344 730.914062 429.09375 730.175781 429.769531 729.417969 C 430.441406 728.664062 431.097656 727.890625 431.734375 727.105469 C 432.371094 726.316406 432.988281 725.511719 433.585938 724.691406 C 434.183594 723.875 434.757812 723.039062 435.3125 722.195312 C 435.867188 721.347656 436.402344 720.484375 436.917969 719.613281 C 437.429688 718.738281 437.917969 717.851562 438.386719 716.953125 C 438.859375 716.054688 439.304688 715.144531 439.726562 714.226562 C 440.152344 713.304688 440.550781 712.375 440.929688 711.433594 C 441.308594 710.496094 441.664062 709.546875 441.992188 708.589844 C 442.324219 707.628906 442.628906 706.664062 442.914062 705.691406 C 443.195312 704.71875 443.457031 703.742188 443.691406 702.753906 C 443.925781 701.769531 444.132812 700.777344 444.320312 699.78125 C 444.503906 698.785156 444.664062 697.785156 444.800781 696.78125 C 444.9375 695.777344 445.046875 694.769531 445.132812 693.761719 C 445.21875 692.75 445.28125 691.742188 445.316406 690.726562 C 445.351562 689.714844 445.363281 688.703125 445.347656 687.691406 L 445.347656 442.28125 L 690.757812 442.28125 C 691.769531 442.296875 692.78125 442.285156 693.796875 442.25 C 694.808594 442.214844 695.820312 442.152344 696.828125 442.066406 C 697.839844 441.980469 698.84375 441.871094 699.847656 441.734375 C 700.851562 441.597656 701.851562 441.4375 702.847656 441.253906 C 703.84375 441.066406 704.835938 440.855469 705.820312 440.621094 C 706.808594 440.386719 707.789062 440.128906 708.761719 439.847656 C 709.734375 439.5625 710.699219 439.257812 711.65625 438.925781 C 712.613281 438.59375 713.5625 438.242188 714.503906 437.863281 C 715.441406 437.484375 716.375 437.085938 717.292969 436.660156 C 718.214844 436.238281 719.121094 435.789062 720.019531 435.320312 C 720.917969 434.851562 721.804688 434.363281 722.679688 433.847656 C 723.554688 433.335938 724.414062 432.800781 725.261719 432.246094 C 726.109375 431.691406 726.941406 431.113281 727.761719 430.519531 C 728.578125 429.921875 729.382812 429.304688 730.171875 428.667969 C 730.960938 428.03125 731.730469 427.375 732.488281 426.699219 C 733.242188 426.027344 733.980469 425.332031 734.703125 424.621094 C 735.425781 423.910156 736.128906 423.183594 736.8125 422.433594 C 737.5 421.6875 738.164062 420.925781 738.8125 420.148438 C 739.460938 419.367188 740.089844 418.574219 740.695312 417.761719 C 741.304688 416.953125 741.894531 416.128906 742.460938 415.289062 C 743.027344 414.449219 743.574219 413.597656 744.097656 412.730469 C 744.625 411.863281 745.128906 410.984375 745.609375 410.09375 C 746.089844 409.199219 746.550781 408.296875 746.988281 407.382812 C 747.421875 406.46875 747.835938 405.546875 748.226562 404.609375 C 748.621094 403.675781 748.988281 402.730469 749.332031 401.777344 C 749.675781 400.824219 749.996094 399.863281 750.292969 398.894531 C 750.589844 397.925781 750.863281 396.953125 751.109375 395.96875 C 751.359375 394.988281 751.582031 394 751.78125 393.007812 C 751.980469 392.011719 752.15625 391.015625 752.304688 390.011719 C 752.457031 389.011719 752.582031 388.007812 752.679688 386.996094 C 752.78125 385.988281 752.855469 384.980469 752.90625 383.96875 C 752.957031 382.957031 752.980469 381.941406 752.980469 380.929688 C 752.980469 379.917969 752.957031 378.902344 752.90625 377.890625 C 752.855469 376.878906 752.78125 375.871094 752.679688 374.863281 C 752.582031 373.851562 752.457031 372.847656 752.304688 371.847656 C 752.15625 370.84375 751.980469 369.847656 751.78125 368.851562 C 751.582031 367.859375 751.359375 366.871094 751.109375 365.890625 C 750.863281 364.90625 750.589844 363.929688 750.292969 362.960938 C 749.996094 361.992188 749.675781 361.03125 749.332031 360.082031 C 748.988281 359.128906 748.621094 358.183594 748.226562 357.25 C 747.835938 356.3125 747.421875 355.390625 746.988281 354.476562 C 746.550781 353.5625 746.089844 352.660156 745.609375 351.765625 C 745.128906 350.875 744.625 349.996094 744.097656 349.128906 C 743.574219 348.261719 743.027344 347.410156 742.460938 346.570312 C 741.894531 345.730469 741.304688 344.90625 740.695312 344.097656 C 740.089844 343.285156 739.460938 342.492188 738.8125 341.710938 C 738.164062 340.933594 737.5 340.167969 736.8125 339.421875 C 736.128906 338.675781 735.425781 337.949219 734.703125 337.238281 C 733.980469 336.527344 733.242188 335.832031 732.488281 335.15625 C 731.730469 334.484375 730.960938 333.828125 730.171875 333.191406 C 729.382812 332.554688 728.578125 331.9375 727.761719 331.339844 C 726.941406 330.746094 726.109375 330.167969 725.261719 329.613281 C 724.414062 329.058594 723.554688 328.523438 722.679688 328.011719 C 721.804688 327.496094 720.917969 327.007812 720.019531 326.539062 C 719.121094 326.070312 718.214844 325.621094 717.292969 325.199219 C 716.375 324.773438 715.441406 324.375 714.503906 323.996094 C 713.5625 323.617188 712.613281 323.265625 711.65625 322.933594 C 710.699219 322.601562 709.734375 322.296875 708.761719 322.011719 C 707.789062 321.730469 706.808594 321.472656 705.820312 321.238281 C 704.835938 321.003906 703.84375 320.792969 702.847656 320.605469 C 701.851562 320.421875 700.851562 320.261719 699.847656 320.125 C 698.84375 319.988281 697.839844 319.878906 696.828125 319.792969 C 695.820312 319.707031 694.808594 319.644531 693.796875 319.609375 C 692.78125 319.574219 691.769531 319.5625 690.757812 319.578125 L 445.347656 319.578125 L 445.347656 74.167969 C 445.363281 73.148438 445.351562 72.125 445.3125 71.105469 C 445.277344 70.082031 445.214844 69.0625 445.125 68.042969 C 445.039062 67.023438 444.925781 66.007812 444.785156 64.996094 C 444.648438 63.984375 444.484375 62.976562 444.292969 61.96875 C 444.105469 60.964844 443.890625 59.964844 443.652344 58.972656 C 443.414062 57.980469 443.148438 56.992188 442.859375 56.011719 C 442.570312 55.03125 442.257812 54.058594 441.921875 53.09375 C 441.582031 52.128906 441.222656 51.171875 440.835938 50.222656 C 440.453125 49.277344 440.042969 48.339844 439.613281 47.414062 C 439.179688 46.488281 438.726562 45.570312 438.25 44.667969 C 437.769531 43.765625 437.269531 42.871094 436.75 41.992188 C 436.226562 41.113281 435.683594 40.25 435.117188 39.398438 C 434.550781 38.546875 433.964844 37.707031 433.359375 36.886719 C 432.753906 36.0625 432.125 35.257812 431.476562 34.464844 C 430.828125 33.675781 430.164062 32.902344 429.476562 32.144531 C 428.789062 31.386719 428.085938 30.644531 427.363281 29.921875 C 426.640625 29.199219 425.898438 28.496094 425.140625 27.8125 C 424.382812 27.125 423.605469 26.460938 422.816406 25.8125 C 422.023438 25.164062 421.214844 24.539062 420.394531 23.933594 C 419.570312 23.324219 418.730469 22.742188 417.878906 22.175781 C 417.027344 21.613281 416.160156 21.070312 415.28125 20.546875 C 414.402344 20.027344 413.511719 19.527344 412.605469 19.050781 C 411.703125 18.574219 410.785156 18.121094 409.859375 17.6875 C 408.933594 17.257812 407.996094 16.851562 407.046875 16.46875 C 406.101562 16.082031 405.144531 15.722656 404.179688 15.386719 C 403.214844 15.050781 402.242188 14.738281 401.257812 14.449219 C 400.277344 14.164062 399.289062 13.898438 398.296875 13.660156 C 397.300781 13.421875 396.304688 13.210938 395.296875 13.023438 C 394.292969 12.832031 393.285156 12.671875 392.273438 12.53125 C 391.257812 12.394531 390.242188 12.28125 389.222656 12.195312 C 388.207031 12.109375 387.1875 12.046875 386.164062 12.011719 C 385.140625 11.972656 384.121094 11.964844 383.097656 11.980469 Z M 383.097656 11.980469 " fill-opacity="1" fill-rule="nonzero"/></g></svg>