<svg xmlns="http://www.w3.org/2000/svg" xmlns:xlink="http://www.w3.org/1999/xlink" width="100" zoomAndPan="magnify" viewBox="0 0 75 74.999997" height="100" preserveAspectRatio="xMidYMid meet" version="1.0"><path fill="#000000" d="M 42.203125 37.511719 L 56.265625 23.445312 C 57.5625 22.152344 57.5625 20.050781 56.269531 18.757812 C 54.976562 17.464844 52.875 17.460938 51.578125 18.757812 L 37.511719 32.824219 L 23.449219 18.757812 C 22.152344 17.464844 20.050781 17.460938 18.757812 18.757812 C 17.464844 20.046875 17.460938 22.152344 18.757812 23.445312 L 32.824219 37.511719 L 18.757812 51.578125 C 17.464844 52.871094 17.460938 54.972656 18.757812 56.269531 C 20.046875 57.558594 22.152344 57.5625 23.449219 56.265625 L 37.511719 42.203125 L 51.578125 56.265625 C 52.871094 57.558594 54.972656 57.5625 56.269531 56.269531 C 57.5625 54.976562 57.5625 52.875 56.265625 51.578125 Z M 42.203125 37.511719 " fill-opacity="1" fill-rule="evenodd"/></svg>