<svg xmlns="http://www.w3.org/2000/svg" xmlns:xlink="http://www.w3.org/1999/xlink" width="500" zoomAndPan="magnify" viewBox="0 0 375 374.999991" height="500" preserveAspectRatio="xMidYMid meet" version="1.0"><defs><clipPath id="416f4b9098"><path d="M 5.742188 5.742188 L 369.492188 5.742188 L 369.492188 369.492188 L 5.742188 369.492188 Z M 5.742188 5.742188 " clip-rule="nonzero"/></clipPath></defs><g clip-path="url(#416f4b9098)"><path fill="#000000" d="M 187.617188 5.742188 C 87.167969 5.742188 5.742188 87.167969 5.742188 187.617188 C 5.742188 288.0625 87.167969 369.492188 187.617188 369.492188 C 281.226562 369.492188 358.242188 298.75 368.304688 207.824219 C 365.398438 207.824219 336.183594 207.824219 327.460938 207.824219 C 317.601562 276.261719 258.738281 329.074219 187.617188 329.074219 C 109.617188 329.074219 46.15625 265.617188 46.15625 187.617188 C 46.15625 109.617188 109.617188 46.15625 187.617188 46.15625 C 231.753906 46.15625 271.207031 66.496094 297.167969 98.273438 L 248.242188 147.199219 L 369.492188 147.199219 L 369.492188 25.949219 L 325.84375 69.597656 C 292.484375 30.566406 242.984375 5.742188 187.617188 5.742188 Z M 187.617188 5.742188 " fill-opacity="1" fill-rule="nonzero"/></g></svg>