<svg xmlns="http://www.w3.org/2000/svg" xmlns:xlink="http://www.w3.org/1999/xlink" width="500" zoomAndPan="magnify" viewBox="0 0 375 374.999991" height="500" preserveAspectRatio="xMidYMid meet" version="1.0"><defs><clipPath id="c1002a19a9"><path d="M 5.742188 5.742188 L 369.492188 5.742188 L 369.492188 369.492188 L 5.742188 369.492188 Z M 5.742188 5.742188 " clip-rule="nonzero"/></clipPath></defs><g clip-path="url(#c1002a19a9)"><path fill="#ffffff" d="M 187.5 5.742188 C 87.117188 5.742188 5.742188 87.117188 5.742188 187.5 C 5.742188 287.882812 87.117188 369.257812 187.5 369.257812 C 281.046875 369.257812 358.015625 298.5625 368.070312 207.695312 C 365.167969 207.695312 335.972656 207.695312 327.253906 207.695312 C 317.402344 276.085938 258.574219 328.867188 187.5 328.867188 C 109.546875 328.867188 46.132812 265.449219 46.132812 187.5 C 46.132812 109.546875 109.546875 46.132812 187.5 46.132812 C 231.605469 46.132812 271.035156 66.457031 296.980469 98.210938 L 248.085938 147.109375 L 369.257812 147.109375 L 369.257812 25.9375 L 325.636719 69.554688 C 292.300781 30.550781 242.832031 5.742188 187.5 5.742188 Z M 187.5 5.742188 " fill-opacity="1" fill-rule="nonzero"/></g></svg>