<svg xmlns="http://www.w3.org/2000/svg" xmlns:xlink="http://www.w3.org/1999/xlink" width="100" zoomAndPan="magnify" viewBox="0 0 75 74.999997" height="100" preserveAspectRatio="xMidYMid meet" version="1.0"><defs><clipPath id="73ef1b15c4"><path d="M 7.5 13.199219 L 67.5 13.199219 L 67.5 61.949219 L 7.5 61.949219 Z M 7.5 13.199219 " clip-rule="nonzero"/></clipPath><clipPath id="981bea8fd5"><path d="M 7.5 18 L 67.5 18 L 67.5 61.949219 L 7.5 61.949219 Z M 7.5 18 " clip-rule="nonzero"/></clipPath></defs><g clip-path="url(#73ef1b15c4)"><path fill="#c98d09" d="M 38.929688 18.945312 L 33.929688 13.929688 C 33.453125 13.453125 32.882812 13.214844 32.214844 13.214844 L 9.882812 13.214844 C 8.546875 13.214844 7.5 14.265625 7.5 15.601562 L 7.5 59.546875 C 7.5 60.886719 8.546875 61.9375 9.882812 61.9375 L 65.117188 61.9375 C 66.453125 61.9375 67.5 60.886719 67.5 59.546875 L 67.5 21.332031 C 67.5 19.996094 66.453125 18.945312 65.117188 18.945312 Z M 38.929688 18.945312 " fill-opacity="1" fill-rule="nonzero"/></g><path fill="#cfd8dc" d="M 10.355469 19.902344 L 63.691406 19.902344 L 63.691406 57.636719 L 10.355469 57.636719 Z M 10.355469 19.902344 " fill-opacity="1" fill-rule="nonzero"/><path fill="#eceff1" d="M 11.308594 20.855469 L 64.644531 20.855469 L 64.644531 58.59375 L 11.308594 58.59375 Z M 11.308594 20.855469 " fill-opacity="1" fill-rule="nonzero"/><path fill="#ffffff" d="M 9.40625 21.8125 L 62.738281 21.8125 L 62.738281 59.546875 L 9.40625 59.546875 Z M 9.40625 21.8125 " fill-opacity="1" fill-rule="nonzero"/><g clip-path="url(#981bea8fd5)"><path fill="#ffca28" d="M 33.214844 24.675781 L 38.929688 18.945312 L 65.117188 18.945312 C 66.453125 18.945312 67.5 19.996094 67.5 21.332031 L 67.5 59.546875 C 67.5 60.886719 66.453125 61.9375 65.117188 61.9375 L 9.882812 61.9375 C 8.546875 61.9375 7.5 60.886719 7.5 59.546875 L 7.5 24.675781 Z M 33.214844 24.675781 " fill-opacity="1" fill-rule="nonzero"/></g></svg>