<svg xmlns="http://www.w3.org/2000/svg" xmlns:xlink="http://www.w3.org/1999/xlink" width="1024" zoomAndPan="magnify" viewBox="0 0 768 767.999994" height="1024" preserveAspectRatio="xMidYMid meet" version="1.0"><defs><clipPath id="1da5be5333"><path d="M 13.027344 13.027344 L 754.25 13.027344 L 754.25 754.777344 L 13.027344 754.777344 Z M 13.027344 13.027344 " clip-rule="nonzero"/></clipPath></defs><g clip-path="url(#1da5be5333)"><path fill="#100f0d" d="M 381.332031 242.847656 C 458.445312 241.398438 522.058594 302.773438 523.503906 379.882812 C 523.503906 381.265625 523.503906 382.582031 523.503906 383.964844 C 524.363281 461.078125 462.59375 524.296875 385.480469 525.152344 C 308.371094 526.007812 245.152344 464.238281 244.296875 387.128906 C 244.296875 386.074219 244.296875 385.019531 244.296875 383.964844 C 243.441406 307.25 304.617188 244.230469 381.332031 242.847656 Z M 396.28125 13.355469 C 375.472656 12.628906 354.597656 13.683594 333.984375 16.449219 C 326.675781 17.4375 320.683594 22.574219 318.511719 29.554688 L 297.964844 96.460938 C 296.1875 102.121094 291.839844 106.667969 286.242188 108.640625 C 276.5625 112.132812 267.082031 116.015625 257.796875 120.429688 C 252.394531 123.0625 246.074219 122.933594 240.804688 120.101562 L 179.039062 87.304688 C 172.519531 83.882812 164.617188 84.539062 158.820312 89.019531 C 132.347656 109.101562 108.773438 132.742188 88.625 159.148438 C 84.144531 165.011719 83.488281 172.847656 86.910156 179.367188 L 119.769531 241.199219 C 122.601562 246.402344 122.867188 252.726562 120.429688 258.125 C 115.953125 267.410156 112 276.890625 108.574219 286.574219 C 106.601562 292.234375 102.058594 296.582031 96.328125 298.292969 L 29.488281 318.90625 C 22.441406 321.011719 17.304688 327.070312 16.382812 334.316406 C 11.90625 367.304688 11.90625 400.628906 16.382812 433.617188 C 17.304688 440.863281 22.441406 446.921875 29.488281 449.027344 L 96.328125 469.640625 C 102.058594 471.351562 106.601562 475.699219 108.574219 481.359375 C 112 491.039062 115.953125 500.523438 120.429688 509.808594 C 122.867188 515.207031 122.601562 521.53125 119.769531 526.734375 L 86.910156 588.566406 C 83.488281 595.019531 84.144531 602.921875 88.625 608.785156 C 108.773438 635.191406 132.347656 658.765625 158.820312 678.914062 C 164.617188 683.394531 172.519531 683.984375 179.039062 680.628906 L 240.804688 647.832031 C 246.074219 645 252.394531 644.871094 257.796875 647.4375 C 267.082031 651.851562 276.5625 655.800781 286.242188 659.226562 C 291.839844 661.199219 296.1875 665.746094 297.964844 671.40625 L 318.511719 738.3125 C 320.683594 745.359375 326.675781 750.496094 333.984375 751.417969 C 366.910156 755.894531 400.296875 755.894531 433.222656 751.417969 C 440.46875 750.496094 446.527344 745.359375 448.699219 738.3125 L 469.246094 671.40625 C 471.023438 665.746094 475.367188 661.199219 480.964844 659.226562 C 490.644531 655.800781 500.195312 651.851562 509.414062 647.4375 C 514.8125 644.871094 521.070312 645 526.335938 647.832031 L 588.171875 680.628906 C 594.691406 683.984375 602.59375 683.394531 608.386719 678.914062 C 634.859375 658.765625 658.433594 635.191406 678.585938 608.785156 C 683.0625 602.921875 683.722656 595.019531 680.296875 588.566406 L 647.503906 526.734375 C 644.605469 521.53125 644.410156 515.207031 646.84375 509.808594 C 651.257812 500.523438 655.207031 491.039062 658.632812 481.359375 C 660.609375 475.699219 665.152344 471.351562 670.882812 469.640625 L 737.785156 449.027344 C 744.765625 446.855469 749.902344 440.863281 750.890625 433.617188 C 755.300781 400.628906 755.300781 367.304688 750.890625 334.316406 C 749.902344 327.070312 744.765625 321.011719 737.785156 318.90625 L 670.882812 298.292969 C 665.152344 296.582031 660.609375 292.234375 658.632812 286.574219 C 655.207031 276.890625 651.257812 267.410156 646.84375 258.125 C 644.410156 252.726562 644.605469 246.402344 647.503906 241.199219 L 680.296875 179.367188 C 683.722656 172.847656 683.0625 165.011719 678.585938 159.148438 C 658.433594 132.742188 634.859375 109.101562 608.386719 89.019531 C 602.59375 84.539062 594.691406 83.882812 588.171875 87.304688 L 526.335938 120.101562 C 521.070312 122.933594 514.8125 123.0625 509.414062 120.496094 C 500.195312 116.082031 490.644531 112.132812 480.964844 108.707031 C 475.367188 106.730469 471.023438 102.1875 469.246094 96.460938 L 448.699219 29.621094 C 446.527344 22.574219 440.46875 17.4375 433.222656 16.449219 C 420.976562 14.804688 408.660156 13.75 396.28125 13.355469 " fill-opacity="1" fill-rule="nonzero"/></g></svg>