<svg xmlns="http://www.w3.org/2000/svg" xmlns:xlink="http://www.w3.org/1999/xlink" width="1024" zoomAndPan="magnify" viewBox="0 0 768 767.999994" height="1024" preserveAspectRatio="xMidYMid meet" version="1.0"><defs><clipPath id="e183316a6a"><path d="M 13.027344 13.027344 L 754.4375 13.027344 L 754.4375 754.777344 L 13.027344 754.777344 Z M 13.027344 13.027344 " clip-rule="nonzero"/></clipPath></defs><g clip-path="url(#e183316a6a)"><path fill="#d9d9d9" d="M 381.425781 242.90625 C 458.558594 241.457031 522.1875 302.84375 523.632812 379.976562 C 523.632812 381.359375 523.632812 382.675781 523.632812 384.058594 C 524.492188 461.191406 462.707031 524.425781 385.574219 525.28125 C 308.445312 526.136719 245.210938 464.351562 244.355469 387.222656 C 244.355469 386.167969 244.355469 385.113281 244.355469 384.058594 C 243.496094 307.324219 304.6875 244.289062 381.425781 242.90625 Z M 396.378906 13.355469 C 375.5625 12.628906 354.683594 13.683594 334.066406 16.449219 C 326.753906 17.4375 320.761719 22.578125 318.585938 29.558594 L 298.035156 96.480469 C 296.257812 102.144531 291.910156 106.691406 286.3125 108.667969 C 276.628906 112.15625 267.144531 116.042969 257.855469 120.457031 C 252.457031 123.089844 246.132812 122.960938 240.863281 120.128906 L 179.078125 87.324219 C 172.558594 83.898438 164.652344 84.558594 158.859375 89.039062 C 132.378906 109.128906 108.796875 132.773438 88.640625 159.1875 C 84.164062 165.050781 83.503906 172.886719 86.929688 179.410156 L 119.796875 241.257812 C 122.628906 246.460938 122.894531 252.785156 120.457031 258.1875 C 115.976562 267.472656 112.027344 276.957031 108.601562 286.640625 C 106.625 292.304688 102.078125 296.652344 96.347656 298.367188 L 29.492188 318.984375 C 22.445312 321.089844 17.308594 327.148438 16.386719 334.394531 C 11.90625 367.394531 11.90625 400.726562 16.386719 433.726562 C 17.308594 440.96875 22.445312 447.03125 29.492188 449.136719 L 96.347656 469.753906 C 102.078125 471.46875 106.625 475.816406 108.601562 481.480469 C 112.027344 491.160156 115.976562 500.648438 120.457031 509.933594 C 122.894531 515.335938 122.628906 521.660156 119.796875 526.863281 L 86.929688 588.710938 C 83.503906 595.167969 84.164062 603.070312 88.640625 608.933594 C 108.796875 635.347656 132.378906 658.925781 158.859375 679.082031 C 164.652344 683.5625 172.558594 684.15625 179.078125 680.796875 L 240.863281 647.992188 C 246.132812 645.160156 252.457031 645.03125 257.855469 647.597656 C 267.144531 652.011719 276.628906 655.964844 286.3125 659.390625 C 291.910156 661.363281 296.257812 665.910156 298.035156 671.574219 L 318.585938 738.496094 C 320.761719 745.542969 326.753906 750.683594 334.066406 751.605469 C 367 756.082031 400.394531 756.082031 433.328125 751.605469 C 440.574219 750.683594 446.636719 745.542969 448.808594 738.496094 L 469.359375 671.574219 C 471.136719 665.910156 475.484375 661.363281 481.085938 659.390625 C 490.765625 655.964844 500.316406 652.011719 509.539062 647.597656 C 514.941406 645.03125 521.199219 645.160156 526.46875 647.992188 L 588.316406 680.796875 C 594.839844 684.15625 602.742188 683.5625 608.539062 679.082031 C 635.015625 658.925781 658.597656 635.347656 678.753906 608.933594 C 683.234375 603.070312 683.890625 595.167969 680.464844 588.710938 L 647.664062 526.863281 C 644.765625 521.660156 644.570312 515.335938 647.003906 509.933594 C 651.417969 500.648438 655.371094 491.160156 658.796875 481.480469 C 660.773438 475.816406 665.316406 471.46875 671.046875 469.753906 L 737.96875 449.136719 C 744.953125 446.964844 750.089844 440.96875 751.078125 433.726562 C 755.488281 400.726562 755.488281 367.394531 751.078125 334.394531 C 750.089844 327.148438 744.953125 321.089844 737.96875 318.984375 L 671.046875 298.367188 C 665.316406 296.652344 660.773438 292.304688 658.796875 286.640625 C 655.371094 276.957031 651.417969 267.472656 647.003906 258.1875 C 644.570312 252.785156 644.765625 246.460938 647.664062 241.257812 L 680.464844 179.410156 C 683.890625 172.886719 683.234375 165.050781 678.753906 159.1875 C 658.597656 132.773438 635.015625 109.128906 608.539062 89.039062 C 602.742188 84.558594 594.839844 83.898438 588.316406 87.324219 L 526.46875 120.128906 C 521.199219 122.960938 514.941406 123.089844 509.539062 120.523438 C 500.316406 116.109375 490.765625 112.15625 481.085938 108.730469 C 475.484375 106.757812 471.136719 102.210938 469.359375 96.480469 L 448.808594 29.625 C 446.636719 22.578125 440.574219 17.4375 433.328125 16.449219 C 421.078125 14.804688 408.761719 13.75 396.378906 13.355469 " fill-opacity="1" fill-rule="nonzero"/></g></svg>